<svg width="28" height="28" viewBox="0 0 28 28" fill="none" xmlns="http://www.w3.org/2000/svg">
<path fill-rule="evenodd" clip-rule="evenodd" d="M3.50016 14C4.14449 14 4.66683 14.5223 4.66683 15.1667V19.8333C4.66683 19.922 4.70385 20.1041 4.97231 20.3762C5.24573 20.6533 5.69921 20.9562 6.35169 21.2359C7.6525 21.7933 9.53088 22.1667 11.6668 22.1667C13.8028 22.1667 15.6812 21.7933 16.9819 21.2359C17.6344 20.9562 18.0879 20.6533 18.3614 20.3762C18.6298 20.1041 18.6668 19.922 18.6668 19.8333V15.1667C18.6668 14.5223 19.1891 14 19.8335 14C20.4778 14 21.0002 14.5223 21.0002 15.1667V19.8333C21.0002 20.7111 20.5802 21.4497 20.0221 22.0152C19.469 22.5756 18.7266 23.0269 17.9011 23.3806C16.2461 24.0898 14.0412 24.5 11.6668 24.5C9.29245 24.5 7.0875 24.0898 5.43255 23.3806C4.60715 23.0269 3.86466 22.5756 3.31157 22.0152C2.75353 21.4497 2.3335 20.7111 2.3335 19.8333V15.1667C2.3335 14.5223 2.85584 14 3.50016 14Z" fill="black"/>
<path fill-rule="evenodd" clip-rule="evenodd" d="M16.9165 8.16667C16.9165 7.52234 17.4388 7 18.0832 7C21.1426 7 23.069 7.65941 24.2403 8.66802C25.443 9.70363 25.6665 10.9461 25.6665 11.6667V16.3333C25.6665 17.6057 24.8036 18.5638 23.8469 19.1996C22.86 19.8554 21.5373 20.3401 20.0659 20.6397C19.4345 20.7683 18.8185 20.3607 18.69 19.7293C18.5614 19.0979 18.969 18.4819 19.6004 18.3533C20.8881 18.0911 21.8989 17.6925 22.5555 17.2562C23.2423 16.7998 23.3332 16.4571 23.3332 16.3333V11.6667C23.3332 11.415 23.265 10.9075 22.7178 10.4361C22.139 9.93781 20.857 9.33333 18.0832 9.33333C17.4388 9.33333 16.9165 8.81099 16.9165 8.16667Z" fill="black"/>
<path fill-rule="evenodd" clip-rule="evenodd" d="M24.4998 10.5C25.1442 10.5 25.6665 11.0223 25.6665 11.6667C25.6665 13.4533 24.4984 14.5115 23.3117 15.0593C22.155 15.5932 20.8027 15.75 19.8332 15.75C19.1888 15.75 18.6665 15.2277 18.6665 14.5833C18.6665 13.939 19.1888 13.4167 19.8332 13.4167C20.6137 13.4167 21.5947 13.2818 22.3338 12.9407C23.0429 12.6135 23.3332 12.2134 23.3332 11.6667C23.3332 11.0223 23.8555 10.5 24.4998 10.5Z" fill="black"/>
<path fill-rule="evenodd" clip-rule="evenodd" d="M3.50016 9.33325C4.14449 9.33325 4.66683 9.85559 4.66683 10.4999V15.1666C4.66683 15.2553 4.70385 15.4374 4.97231 15.7094C5.24573 15.9865 5.69921 16.2895 6.35169 16.5692C7.6525 17.1266 9.53088 17.4999 11.6668 17.4999C13.8028 17.4999 15.6812 17.1266 16.9819 16.5692C17.6344 16.2895 18.0879 15.9865 18.3614 15.7094C18.6298 15.4374 18.6668 15.2553 18.6668 15.1666V10.4999C18.6668 9.85559 19.1891 9.33325 19.8335 9.33325C20.4778 9.33325 21.0002 9.85559 21.0002 10.4999V15.1666C21.0002 16.0444 20.5802 16.783 20.0221 17.3485C19.469 17.9088 18.7266 18.3601 17.9011 18.7138C16.2461 19.4231 14.0412 19.8333 11.6668 19.8333C9.29245 19.8333 7.0875 19.4231 5.43255 18.7138C4.60715 18.3601 3.86466 17.9088 3.31157 17.3485C2.75353 16.783 2.3335 16.0444 2.3335 15.1666V10.4999C2.3335 9.85559 2.85584 9.33325 3.50016 9.33325Z" fill="black"/>
<path fill-rule="evenodd" clip-rule="evenodd" d="M4.97231 9.95707C4.70385 10.2291 4.66683 10.4112 4.66683 10.4999C4.66683 10.5886 4.70385 10.7707 4.97231 11.0428C5.24573 11.3198 5.69921 11.6228 6.35169 11.9025C7.6525 12.4599 9.53088 12.8333 11.6668 12.8333C13.8028 12.8333 15.6812 12.4599 16.9819 11.9025C17.6344 11.6228 18.0879 11.3198 18.3614 11.0428C18.6298 10.7707 18.6668 10.5886 18.6668 10.4999C18.6668 10.4112 18.6298 10.2291 18.3614 9.95707C18.0879 9.68002 17.6344 9.37701 16.9819 9.09738C15.6812 8.5399 13.8028 8.16659 11.6668 8.16659C9.53088 8.16659 7.6525 8.5399 6.35169 9.09738C5.69921 9.37701 5.24573 9.68002 4.97231 9.95707ZM5.43255 6.9527C7.0875 6.24345 9.29245 5.83325 11.6668 5.83325C14.0412 5.83325 16.2461 6.24345 17.9011 6.9527C18.7266 7.30645 19.469 7.75763 20.0221 8.31805C20.5802 8.88349 21.0002 9.62214 21.0002 10.4999C21.0002 11.3777 20.5802 12.1163 20.0221 12.6818C19.469 13.2422 18.7266 13.6934 17.9011 14.0472C16.2461 14.7564 14.0412 15.1666 11.6668 15.1666C9.29245 15.1666 7.0875 14.7564 5.43255 14.0472C4.60715 13.6934 3.86466 13.2422 3.31157 12.6818C2.75353 12.1163 2.3335 11.3777 2.3335 10.4999C2.3335 9.62214 2.75353 8.88349 3.31157 8.31805C3.86466 7.75763 4.60715 7.30645 5.43255 6.9527Z" fill="black"/>
</svg>
