<svg width="28" height="28" viewBox="0 0 28 28" fill="none" xmlns="http://www.w3.org/2000/svg">
<path d="M14 24.5C19.799 24.5 24.5 19.799 24.5 14C24.5 8.20101 19.799 3.5 14 3.5C8.20101 3.5 3.5 8.20101 3.5 14C3.5 19.799 8.20101 24.5 14 24.5Z" stroke="black" stroke-width="2"/>
<path d="M17.5002 8.7731C16.7432 8.38498 15.8899 8.16675 14.9874 8.16675C11.8648 8.16675 9.3335 10.7784 9.3335 14.0001C9.3335 17.2217 11.8648 19.8334 14.9874 19.8334C15.8899 19.8334 16.7432 19.6151 17.5002 19.2271" stroke="black" stroke-width="2" stroke-linecap="round" stroke-linejoin="round"/>
<path d="M13.9998 15.75H8.1665" stroke="black" stroke-width="2" stroke-linecap="round" stroke-linejoin="round"/>
<path d="M13.9998 12.8333H8.1665" stroke="black" stroke-width="2" stroke-linecap="round" stroke-linejoin="round"/>
</svg>
