<svg width="28" height="28" viewBox="0 0 28 28" fill="none" xmlns="http://www.w3.org/2000/svg">
<path fill-rule="evenodd" clip-rule="evenodd" d="M4.6665 4.66659C4.6665 3.37792 5.71117 2.33325 6.99984 2.33325H19.1497L23.3332 6.51667V23.3333C23.3332 24.622 22.2885 25.6666 20.9998 25.6666H6.99984C5.71117 25.6666 4.6665 24.622 4.6665 23.3333V4.66659ZM18.1833 4.66659H6.99984V23.3333H20.9998V7.48316L18.1833 4.66659Z" fill="black"/>
<path fill-rule="evenodd" clip-rule="evenodd" d="M16.3335 3.5H18.6668V7H22.1668V9.33333H16.3335V3.5Z" fill="black"/>
<path fill-rule="evenodd" clip-rule="evenodd" d="M4.6665 4.66659C4.6665 3.37792 5.71117 2.33325 6.99984 2.33325H19.1497L23.3332 6.51667V23.3333C23.3332 24.622 22.2885 25.6666 20.9998 25.6666H6.99984C5.71117 25.6666 4.6665 24.622 4.6665 23.3333V4.66659ZM18.1833 4.66659H6.99984V23.3333H20.9998V7.48316L18.1833 4.66659Z" fill="black"/>
<path fill-rule="evenodd" clip-rule="evenodd" d="M9.3335 12.8334C9.3335 12.1891 9.85584 11.6667 10.5002 11.6667H17.5002C18.1445 11.6667 18.6668 12.1891 18.6668 12.8334C18.6668 13.4778 18.1445 14.0001 17.5002 14.0001H10.5002C9.85584 14.0001 9.3335 13.4778 9.3335 12.8334Z" fill="black"/>
<path fill-rule="evenodd" clip-rule="evenodd" d="M9.3335 17.4999C9.3335 16.8556 9.85584 16.3333 10.5002 16.3333H15.1668C15.8112 16.3333 16.3335 16.8556 16.3335 17.4999C16.3335 18.1443 15.8112 18.6666 15.1668 18.6666H10.5002C9.85584 18.6666 9.3335 18.1443 9.3335 17.4999Z" fill="black"/>
</svg>
