<svg width="28" height="28" viewBox="0 0 28 28" fill="none" xmlns="http://www.w3.org/2000/svg">
<path fill-rule="evenodd" clip-rule="evenodd" d="M15.2147 22.8941C19.5713 21.7268 22.1568 17.2486 20.9894 12.892C20.8227 12.2697 21.192 11.6299 21.8143 11.4631C22.4368 11.2964 23.0764 11.6657 23.2433 12.2881C24.7441 17.8895 21.42 23.647 15.8186 25.1479C13.0066 25.9015 10.153 25.4378 7.82202 24.0822C7.26504 23.7582 7.07612 23.0441 7.40004 22.4871C7.72398 21.9301 8.43811 21.7412 8.99509 22.0651C10.8109 23.1212 13.027 23.4803 15.2147 22.8941Z" fill="black"/>
<path fill-rule="evenodd" clip-rule="evenodd" d="M18.9407 15.8743C18.4775 15.4264 18.465 14.6878 18.9129 14.2246L21.2773 11.7793C21.7251 11.3161 22.4638 11.3037 22.9269 11.7515L25.3721 14.1158C25.8354 14.5636 25.8478 15.3023 25.3999 15.7654C24.9521 16.2287 24.2135 16.2411 23.7502 15.7932L22.1437 14.2399L20.5903 15.8465C20.1424 16.3097 19.4039 16.3222 18.9407 15.8743Z" fill="black"/>
<path fill-rule="evenodd" clip-rule="evenodd" d="M12.3122 6.06149C7.95561 7.22885 5.37019 11.707 6.53755 16.0635C6.70432 16.686 6.33497 17.3256 5.71259 17.4925C5.09021 17.6592 4.45049 17.2898 4.28373 16.6675C2.78283 11.0661 6.10695 5.30855 11.7083 3.80767C14.5204 3.05418 17.374 3.51776 19.7049 4.87342C20.2619 5.19735 20.4509 5.91148 20.1269 6.46846C19.803 7.02545 19.0889 7.21437 18.5318 6.89043C16.716 5.83438 14.4999 5.47531 12.3122 6.06149Z" fill="black"/>
<path fill-rule="evenodd" clip-rule="evenodd" d="M8.58653 13.0816C9.04974 13.5295 9.06217 14.2681 8.61428 14.7313L6.24993 17.1766C5.80206 17.6398 5.06349 17.6521 4.60027 17.2044L2.15503 14.8401C1.69182 14.3922 1.67937 13.6536 2.12725 13.1904C2.57513 12.7272 3.31371 12.7148 3.77693 13.1627L5.38345 14.7159L6.93685 13.1094C7.38473 12.6462 8.12333 12.6337 8.58653 13.0816Z" fill="black"/>
</svg>
