<svg width="16" height="16" viewBox="0 0 16 16" fill="none" xmlns="http://www.w3.org/2000/svg">
<path fill-rule="evenodd" clip-rule="evenodd" d="M14.18 1.65471C14.3441 1.82128 14.4015 2.06768 14.3281 2.29116L10.6505 13.486C10.5637 13.7503 10.3142 13.9238 10.04 13.9106C9.76573 13.8973 9.53362 13.7007 9.47184 13.4292L8.17894 7.74408L2.57618 6.43211C2.30864 6.36947 2.1148 6.13391 2.10177 5.85562C2.08874 5.57733 2.2597 5.32419 2.52018 5.23608L13.5528 1.50446C13.773 1.42997 14.0159 1.48814 14.18 1.65471ZM4.97442 5.71713L8.82784 6.61943C9.05621 6.67292 9.23451 6.8539 9.28722 7.08563L10.1765 10.9957L12.7775 3.07786L4.97442 5.71713Z" fill="white"/>
</svg>
