<svg width="19" height="19" viewBox="0 0 19 19" fill="none" xmlns="http://www.w3.org/2000/svg">
<path fill-rule="evenodd" clip-rule="evenodd" d="M10.2683 15.4153C13.0306 14.6642 14.6699 11.7831 13.9297 8.98007C13.824 8.5797 14.0582 8.16809 14.4528 8.0608C14.8474 7.9535 15.253 8.19114 15.3588 8.59156C16.3104 12.1954 14.2028 15.8997 10.6511 16.8653C8.86817 17.3502 7.05881 17.0519 5.58085 16.1797C5.22769 15.9712 5.1079 15.5118 5.31329 15.1534C5.51869 14.7951 5.97148 14.6735 6.32464 14.8819C7.47597 15.5614 8.88111 15.7924 10.2683 15.4153Z" fill="white"/>
<path fill-rule="evenodd" clip-rule="evenodd" d="M12.6308 10.8986C12.3371 10.6105 12.3292 10.1353 12.6132 9.83728L14.1123 8.264C14.3963 7.966 14.8647 7.95799 15.1583 8.24613L16.7087 9.76725C17.0025 10.0554 17.0103 10.5306 16.7263 10.8286C16.4424 11.1267 15.9741 11.1346 15.6804 10.8465L14.6617 9.84711L13.6768 10.8808C13.3928 11.1788 12.9246 11.1868 12.6308 10.8986Z" fill="white"/>
<path fill-rule="evenodd" clip-rule="evenodd" d="M8.42791 4.58535C5.66558 5.33641 4.02627 8.21755 4.76645 11.0205C4.87219 11.4209 4.638 11.8325 4.24338 11.9398C3.84875 12.0471 3.44313 11.8095 3.33739 11.4091C2.38574 7.80523 4.49342 4.10092 8.04503 3.13528C9.82801 2.6505 11.6374 2.94876 13.1153 3.82097C13.4685 4.02938 13.5883 4.48884 13.3829 4.84719C13.1775 5.20555 12.7247 5.32709 12.3715 5.11868C11.2202 4.43923 9.81506 4.20822 8.42791 4.58535Z" fill="white"/>
<path fill-rule="evenodd" clip-rule="evenodd" d="M6.06569 9.10197C6.3594 9.39013 6.36728 9.86535 6.08329 10.1633L4.58415 11.7366C4.30018 12.0346 3.83188 12.0426 3.53818 11.7545L1.98775 10.2334C1.69405 9.94521 1.68616 9.47 1.97014 9.17201C2.25412 8.87394 2.72242 8.86598 3.01613 9.15414L4.03475 10.1534L5.0197 9.11984C5.30369 8.82185 5.772 8.81381 6.06569 9.10197Z" fill="white"/>
</svg>
