<svg width="19" height="19" viewBox="0 0 19 19" fill="none" xmlns="http://www.w3.org/2000/svg">
<path fill-rule="evenodd" clip-rule="evenodd" d="M4.94059 4.4395C5.08563 4.22471 5.32979 4.0957 5.59126 4.0957H11.0653C11.3115 4.0957 11.5432 4.21011 11.6909 4.40453L13.7766 7.15015C14.2713 7.13108 14.8763 7.17841 15.4498 7.36908C16.2492 7.6349 17.0778 8.22135 17.3062 9.34871C17.3908 9.76678 17.1162 10.1736 16.6927 10.2572C16.2692 10.3408 15.8572 10.0697 15.7725 9.65152C15.6881 9.23476 15.4089 8.98484 14.9505 8.83244C14.4685 8.67216 13.8942 8.66776 13.5219 8.72026C13.2393 8.76017 12.957 8.64475 12.7857 8.41923L10.6743 5.63982H6.00978L3.1139 9.92838C2.87434 10.2831 2.38881 10.379 2.02946 10.1425C1.67011 9.90599 1.573 9.42661 1.81257 9.07185L4.94059 4.4395Z" fill="white"/>
<path fill-rule="evenodd" clip-rule="evenodd" d="M5.59113 11.8162C5.15925 11.8162 4.80913 12.1619 4.80913 12.5883C4.80913 13.0147 5.15925 13.3603 5.59113 13.3603C6.02302 13.3603 6.37314 13.0147 6.37314 12.5883C6.37314 12.1619 6.02302 11.8162 5.59113 11.8162ZM3.24512 12.5883C3.24512 11.309 4.29547 10.2721 5.59113 10.2721C6.8868 10.2721 7.93715 11.309 7.93715 12.5883C7.93715 13.8675 6.8868 14.9044 5.59113 14.9044C4.29547 14.9044 3.24512 13.8675 3.24512 12.5883Z" fill="white"/>
<path fill-rule="evenodd" clip-rule="evenodd" d="M13.4114 11.8162C12.9795 11.8162 12.6294 12.1619 12.6294 12.5883C12.6294 13.0147 12.9795 13.3603 13.4114 13.3603C13.8433 13.3603 14.1934 13.0147 14.1934 12.5883C14.1934 12.1619 13.8433 11.8162 13.4114 11.8162ZM11.0654 12.5883C11.0654 11.309 12.1157 10.2721 13.4114 10.2721C14.7071 10.2721 15.7575 11.309 15.7575 12.5883C15.7575 13.8675 14.7071 14.9044 13.4114 14.9044C12.1157 14.9044 11.0654 13.8675 11.0654 12.5883Z" fill="white"/>
</svg>
